# xmcd
#
# Track frame offsets: 
#        150
#        12826
#        26472
#        39900
#        52298
#        62223
#        75066
#        88340
#        102826
#        115972
#        128932
#        140681
#        153228
#        165611
#        178678
#        190297
#        201474
#        212146
#        226141
#        237060
#
# Disc length: 3317 seconds
#
# Revision: 0
# Processed by: cddbd v1.5.2PL0 Copyright (c) Steve Scherf et al.
# Submitted via: ExactAudioCopy v1.0b3
#
DISCID=0f0cf314
DTITLE=John Lee Hooker - The Vee-Jay Singles Collection - CD1
DYEAR=2013
DGENRE=Blues
TTITLE0=Mambo Chillun
TTITLE1=Time Is Marching
TTITLE2=Every Night
TTITLE3=Trouble Blues
TTITLE4=Dimples
TTITLE5=Baby Lee
TTITLE6=The Road Is So Rough
TTITLE7=I'm so Worried Baby
TTITLE8=I'm So Excited
TTITLE9=I See You When You're Weak
TTITLE10=Little Wheel
TTITLE11=Rosie Mae
TTITLE12=Can You Lead Me Baby
TTITLE13=Unfriendly Woman
TTITLE14=I Love You Honey
TTITLE15=You've Taken My Woman
TTITLE16=Maudie
TTITLE17=I'm In The Mood
TTITLE18=Tennessee Blues
TTITLE19=Boogie Chillun
EXTD=
EXTT0=
EXTT1=
EXTT2=
EXTT3=
EXTT4=
EXTT5=
EXTT6=
EXTT7=
EXTT8=
EXTT9=
EXTT10=
EXTT11=
EXTT12=
EXTT13=
EXTT14=
EXTT15=
EXTT16=
EXTT17=
EXTT18=
EXTT19=
PLAYORDER=
